<?xml version="1.0" encoding="utf-8"?>
<!-- Generator: Adobe Illustrator 14.0.0, SVG Export Plug-In . SVG Version: 6.00 Build 43363)  -->
<!DOCTYPE svg PUBLIC "-//W3C//DTD SVG 1.1//EN" "http://www.w3.org/Graphics/SVG/1.1/DTD/svg11.dtd">
<svg version="1.1" id="Layer_1" xmlns="http://www.w3.org/2000/svg" xmlns:xlink="http://www.w3.org/1999/xlink" x="0px" y="0px"
	 width="20.625px" height="20.625px" viewBox="0 0 20.625 20.625" enable-background="new 0 0 20.625 20.625" xml:space="preserve">
<g>
	<path d="M10.312,2.25c4.418,0,8,3.582,8,8s-3.582,8-8,8s-8-3.582-8-8S5.895,2.25,10.312,2.25 M10.312,0.25c-5.514,0-10,4.486-10,10
		s4.486,10,10,10c5.514,0,10-4.486,10-10S15.826,0.25,10.312,0.25L10.312,0.25z"/>
</g>
<g>
	<polygon points="10.292,6.16 8.127,6.16 4.3,10.156 8.127,14.152 10.292,14.152 7.229,10.955 15.325,10.955 15.325,9.357 
		7.229,9.357 10.292,6.16 	"/>
</g>
</svg>
