<?xml version="1.0" encoding="utf-8"?>
<!-- Generator: Adobe Illustrator 14.0.0, SVG Export Plug-In . SVG Version: 6.00 Build 43363)  -->
<!DOCTYPE svg PUBLIC "-//W3C//DTD SVG 1.1//EN" "http://www.w3.org/Graphics/SVG/1.1/DTD/svg11.dtd">
<svg version="1.1" id="Layer_1" xmlns="http://www.w3.org/2000/svg" xmlns:xlink="http://www.w3.org/1999/xlink" x="0px" y="0px"
	 width="35.486px" height="35.619px" viewBox="0 0 35.486 35.619" enable-background="new 0 0 35.486 35.619" xml:space="preserve">
<path d="M12.596,9.849c0,0-6.377-6.382-9.276-9.275c-0.757-0.765-1.99-0.765-2.746,0c-0.765,0.756-0.765,1.983,0,2.747
	C3,5.747,9.842,12.595,9.842,12.595s-0.926,0.004-5.164,0.004c-1.071,0-1.941,0.865-1.941,1.944c0,1.071,0.87,1.945,1.941,1.945
	h9.861c1.076,0,1.945-0.874,1.945-1.945V4.76c0-1.073-0.869-1.946-1.945-1.946c-1.071,0-1.943,0.873-1.943,1.946V9.849z"/>
<path d="M22.891,25.765c0,0,6.377,6.387,9.277,9.285c0.757,0.76,1.99,0.76,2.746,0c0.764-0.757,0.764-1.99,0-2.752
	c-2.426-2.427-9.27-9.271-9.27-9.271s0.926-0.008,5.164-0.008c1.072,0,1.94-0.869,1.94-1.944c0-1.071-0.868-1.945-1.94-1.945h-9.861
	c-1.076,0-1.943,0.874-1.943,1.945v9.785c0,1.071,0.867,1.944,1.943,1.944c1.072,0,1.943-0.873,1.943-1.944V25.765z"/>
<path d="M9.854,22.852c0,0-6.389,6.373-9.28,9.272c-0.765,0.758-0.765,1.996,0,2.752c0.756,0.759,1.985,0.759,2.746,0
	c2.431-2.432,9.276-9.271,9.276-9.271s0.008,0.925,0.008,5.163c0,1.072,0.864,1.941,1.939,1.941c1.072,0,1.949-0.869,1.949-1.941
	c-0.008-3.436,0-9.865,0-9.865c-0.008-1.074-0.877-1.941-1.949-1.941H4.762c-1.07,0-1.947,0.867-1.947,1.941
	c0,1.072,0.877,1.948,1.947,1.948H9.854z"/>
<path d="M25.635,12.77c0,0,6.385-6.375,9.279-9.276c0.764-0.756,0.764-1.989,0-2.746c-0.756-0.764-1.986-0.764-2.746,0
	c-2.429,2.424-9.277,9.27-9.277,9.27s-0.007-0.925-0.007-5.165c0-1.074-0.864-1.94-1.94-1.94c-1.072,0-1.947,0.866-1.947,1.94v9.858
	c0,1.079,0.875,1.948,1.947,1.948h9.782c1.07,0,1.946-0.869,1.946-1.948c0-1.072-0.876-1.941-1.946-1.941H25.635z"/>
</svg>
