<?xml version="1.0" encoding="utf-8"?>
<!-- Generator: Adobe Illustrator 14.0.0, SVG Export Plug-In . SVG Version: 6.00 Build 43363)  -->
<!DOCTYPE svg PUBLIC "-//W3C//DTD SVG 1.1//EN" "http://www.w3.org/Graphics/SVG/1.1/DTD/svg11.dtd">
<svg version="1.1" id="Layer_1" xmlns="http://www.w3.org/2000/svg" xmlns:xlink="http://www.w3.org/1999/xlink" x="0px" y="0px"
	 width="37.653px" height="37.65px" viewBox="0 0 37.653 37.65" enable-background="new 0 0 37.653 37.65" xml:space="preserve">
<path d="M18.826,0C8.446,0,0,8.444,0,18.823C0,29.205,8.446,37.65,18.826,37.65s18.827-8.445,18.827-18.827
	C37.653,8.444,29.206,0,18.826,0 M2.959,20.115h4.927c0.089,2.143,0.376,4.012,0.793,5.643H4.494
	C3.654,24.027,3.121,22.123,2.959,20.115 M20.278,8.666V3.933c0.783,0.382,2.881,1.638,4.507,4.733H20.278z M25.956,11.568
	c0.469,1.566,0.803,3.432,0.904,5.643h-6.582v-5.643H25.956z M17.375,3.932v4.734h-4.519C14.479,5.562,16.582,4.312,17.375,3.932
	 M17.375,11.568v5.643h-6.583c0.102-2.213,0.432-4.078,0.898-5.643H17.375z M7.886,17.211H2.984
	c0.204-2.014,0.789-3.919,1.675-5.643h4.02C8.262,13.2,7.975,15.07,7.886,17.211 M10.792,20.115h6.583v5.643h-5.679
	C11.226,24.191,10.896,22.327,10.792,20.115 M17.375,28.659v4.735c-0.784-0.382-2.883-1.64-4.508-4.735H17.375z M17.375,34.441
	v0.238c-0.026-0.004-0.053-0.004-0.079-0.006L17.375,34.441z M20.278,34.455l0.076,0.219c-0.025,0.002-0.051,0.002-0.076,0.006
	V34.455z M20.278,33.395v-4.735h4.518C23.177,31.752,21.081,33.006,20.278,33.395 M20.278,25.758v-5.643h6.582
	c-0.102,2.213-0.432,4.076-0.898,5.643H20.278z M29.767,20.115h4.927c-0.162,2.008-0.694,3.912-1.535,5.643h-4.187
	C29.39,24.127,29.677,22.258,29.767,20.115 M29.767,17.211c-0.09-2.141-0.377-4.011-0.795-5.643h4.021
	c0.888,1.724,1.472,3.629,1.677,5.643H29.767z M31.077,8.666h-3.076c-0.787-1.859-1.748-3.294-2.707-4.385
	C27.544,5.285,29.522,6.794,31.077,8.666 M12.358,4.281c-0.96,1.091-1.92,2.525-2.707,4.385H6.574
	C8.13,6.794,10.107,5.285,12.358,4.281 M6.317,28.659h3.334c0.922,2.181,2.084,3.773,3.199,4.921
	C10.267,32.53,8.02,30.819,6.317,28.659 M24.802,33.58c1.114-1.147,2.277-2.74,3.199-4.921h3.333
	C29.632,30.819,27.386,32.53,24.802,33.58"/>
</svg>
