<?xml version="1.0" encoding="utf-8"?>
<!-- Generator: Adobe Illustrator 14.0.0, SVG Export Plug-In . SVG Version: 6.00 Build 43363)  -->
<!DOCTYPE svg PUBLIC "-//W3C//DTD SVG 1.1//EN" "http://www.w3.org/Graphics/SVG/1.1/DTD/svg11.dtd">
<svg version="1.1" id="Layer_1" xmlns="http://www.w3.org/2000/svg" xmlns:xlink="http://www.w3.org/1999/xlink" x="0px" y="0px"
	 width="74.201px" height="120.773px" viewBox="0 0 74.201 120.773" enable-background="new 0 0 74.201 120.773"
	 xml:space="preserve">
<path d="M37.107,0C16.611,0,0,16.602,0,37.08c0,6.502,1.688,12.604,4.629,17.9c1.537,3.332,3.539,6.367,6.064,9.559
	c5.326,6.582,8.514,14.666,9.656,24.205h33.547c1.145-9.539,4.348-17.623,9.641-24.205c2.859-3.584,5.062-6.975,6.691-10.789
	c2.516-5.029,3.973-10.66,3.973-16.67C74.201,16.602,57.607,0,37.107,0 M39.48,114.277h-9.773c0.443,3.637,3.498,6.496,7.283,6.496
	c3.781,0,6.824-2.859,7.281-6.496H39.48z M20.812,109.133h18.65v0.004h13.93l0.021-5.744H20.836L20.812,109.133z M20.836,96.395
	v2.113h32.578v-2.113c0-0.971,0.041-1.938,0.084-2.348h-32.75C20.791,94.457,20.836,95.424,20.836,96.395"/>
</svg>
