<?xml version="1.0" encoding="utf-8"?>
<!-- Generator: Adobe Illustrator 14.0.0, SVG Export Plug-In . SVG Version: 6.00 Build 43363)  -->
<!DOCTYPE svg PUBLIC "-//W3C//DTD SVG 1.1//EN" "http://www.w3.org/Graphics/SVG/1.1/DTD/svg11.dtd">
<svg version="1.1" id="Layer_1" xmlns="http://www.w3.org/2000/svg" xmlns:xlink="http://www.w3.org/1999/xlink" x="0px" y="0px"
	 width="23.303px" height="41.562px" viewBox="0 0 23.303 41.562" enable-background="new 0 0 23.303 41.562" xml:space="preserve">
<path d="M11.652,23.304c6.435,0,11.651-5.216,11.651-11.651S18.086,0,11.652,0C5.216,0,0,5.217,0,11.652S5.216,23.304,11.652,23.304
	 M11.71,3.935c4.246,0,7.687,3.442,7.687,7.69c0,4.245-3.441,7.688-7.687,7.688c-4.247,0-7.688-3.442-7.688-7.688
	C4.022,7.377,7.463,3.935,11.71,3.935"/>
<path d="M14.354,39.235c0,1.284-1.209,2.326-2.702,2.326S8.95,40.52,8.95,39.235V28.199c0-1.284,1.21-2.326,2.703-2.326
	s2.702,1.042,2.702,2.326V39.235z"/>
<rect x="10.348" y="21.795" width="2.609" height="7.825"/>
</svg>
