<?xml version="1.0" encoding="utf-8"?>
<!-- Generator: Adobe Illustrator 14.0.0, SVG Export Plug-In . SVG Version: 6.00 Build 43363)  -->
<!DOCTYPE svg PUBLIC "-//W3C//DTD SVG 1.1//EN" "http://www.w3.org/Graphics/SVG/1.1/DTD/svg11.dtd">
<svg version="1.1" id="Layer_1" xmlns="http://www.w3.org/2000/svg" xmlns:xlink="http://www.w3.org/1999/xlink" x="0px" y="0px"
	 width="36.553px" height="37.265px" viewBox="0 0 36.553 37.265" enable-background="new 0 0 36.553 37.265" xml:space="preserve">
<path d="M36.158,3.739l-2.818-2.817c-0.416-0.416-0.984-0.521-1.271-0.234l-1.121,1.121l4.321,4.322L36.39,5.01
	C36.677,4.724,36.574,4.155,36.158,3.739"/>
<path d="M29.051,2.99c2.019,2.021,3.028,3.028,5.048,5.048c0.51,0.509,0.639,1.272,0.282,1.703
	c-5.61,6.595-12.241,12.957-18.797,18.307l-6.559-6.562C14.35,14.951,20.767,8.31,27.349,2.709
	C27.349,2.709,28.177,2.116,29.051,2.99"/>
<path d="M2.053,32.91c0,0-0.501-2.556,5.604-9.715l6.221,6.223c-7.294,6.244-9.722,5.627-9.722,5.627"/>
<path d="M25.013,0.484c-0.453-0.576-1.342-0.648-1.916-0.164c-3.329,2.809-6.411,5.89-9.218,9.221
	c-0.484,0.573-0.43,1.455,0.163,1.916c1.063,0.825,1.917-0.164,1.917-0.164c2.706-3.213,5.679-6.185,8.891-8.894
	C24.85,2.399,25.838,1.535,25.013,0.484"/>
<path d="M3.016,36.361c-0.696,0.482-2.12,1.316-2.775,0.662c-0.66-0.66,0.196-2.104,0.672-2.797"/>
</svg>
