<?xml version="1.0" encoding="utf-8"?>
<!-- Generator: Adobe Illustrator 14.0.0, SVG Export Plug-In . SVG Version: 6.00 Build 43363)  -->
<!DOCTYPE svg PUBLIC "-//W3C//DTD SVG 1.1//EN" "http://www.w3.org/Graphics/SVG/1.1/DTD/svg11.dtd">
<svg version="1.1" id="Layer_1" xmlns="http://www.w3.org/2000/svg" xmlns:xlink="http://www.w3.org/1999/xlink" x="0px" y="0px"
	 width="38.321px" height="38.32px" viewBox="0 0 38.321 38.32" enable-background="new 0 0 38.321 38.32" xml:space="preserve">
<path fill="#010101" d="M35.654,2.666C34.185,1.23,32.512,0.039,30.977,0c-0.483-0.005-0.995,0.156-1.366,0.532l-3.822,3.823
	l4.598,4.598l-3.523,3.523l-4.598-4.598L5.596,24.547L0,38.32l13.775-5.597L37.789,8.71c0.375-0.372,0.535-0.884,0.531-1.368
	C38.281,5.809,37.089,4.135,35.654,2.666 M13.064,31.652l-6.953,2.824c-0.229-0.48-0.539-0.932-0.936-1.328
	c-0.399-0.399-0.852-0.707-1.331-0.935l2.825-6.956l0.25-0.25l2.409,0.264l0.327,3.396l3.396,0.326l0.263,2.408L13.064,31.652z
	 M11.844,22.947c-0.205-0.207-0.205-0.539,0-0.744l9.614-9.614c0.205-0.205,0.539-0.205,0.744,0s0.205,0.538,0,0.743l-9.615,9.615
	c-0.103,0.103-0.236,0.153-0.371,0.153C12.081,23.101,11.946,23.05,11.844,22.947"/>
</svg>
