<?xml version="1.0" encoding="utf-8"?>
<!-- Generator: Adobe Illustrator 14.0.0, SVG Export Plug-In . SVG Version: 6.00 Build 43363)  -->
<!DOCTYPE svg PUBLIC "-//W3C//DTD SVG 1.1//EN" "http://www.w3.org/Graphics/SVG/1.1/DTD/svg11.dtd">
<svg version="1.1" id="Layer_1" xmlns="http://www.w3.org/2000/svg" xmlns:xlink="http://www.w3.org/1999/xlink" x="0px" y="0px"
	 width="39.283px" height="37.876px" viewBox="0 0 39.283 37.876" enable-background="new 0 0 39.283 37.876" xml:space="preserve">
<path fill="#010101" d="M32.915,16.198c0,2.41-1.955,4.366-4.365,4.366c-2.411,0-4.365-1.956-4.365-4.366
	c0-2.411,1.954-4.364,4.365-4.364C30.959,11.834,32.915,13.787,32.915,16.198"/>
<path fill="#010101" d="M35.723,37.876v-7.252c0-0.345-0.154-0.644-0.91-0.713c-0.342-0.031-0.744,0.368-0.744,0.713v7.252H23.395
	v-7.252c0-0.345-0.475-0.781-0.817-0.781c-0.344,0-0.894,0.437-0.894,0.781v7.252h-3.502V26.39c0-1.989,2.118-3.854,4.629-3.854
	h11.842c2.512,0,4.63,1.864,4.63,3.854v11.486H35.723z"/>
<path fill="#010101" d="M16.485,4.365c0,2.409-1.953,4.364-4.364,4.364c-2.41,0-4.365-1.955-4.365-4.364
	C7.756,1.954,9.711,0,12.122,0C14.532,0,16.485,1.954,16.485,4.365"/>
<path fill="#010101" d="M24.25,28.376c-0.006-0.161-0.031-0.353-0.08-0.515l-4.151-13.945c-0.55-1.857-2.199-3.215-4.252-3.215
	H8.483c-2.053,0-3.701,1.358-4.251,3.215L0.079,27.861C0.033,28.016,0.008,28.223,0,28.376h3.509l2.695-9.786
	c0.092-0.329,0.784-0.662,1.114-0.57c0.331,0.09,0.724,0.569,0.633,0.9l-2.596,9.457h13.547l-2.603-9.457
	c-0.092-0.331,0.369-0.862,0.711-0.9c0.618-0.069,1.008,0.241,1.1,0.57l2.682,9.786H24.25z"/>
</svg>
